<svg width="66" height="32" viewBox="0 0 66 32" fill="none" xmlns="http://www.w3.org/2000/svg">
<path d="M6.38329 26.8938C6.25411 25.4587 5.28783 24.6611 3.91678 24.6611C3.3056 24.6541 2.71418 24.8798 2.26007 25.2935C1.80595 25.7071 1.52241 26.2784 1.46578 26.8938H6.38329ZM0 27.7419C0 25.2149 1.57946 23.4873 3.90128 23.4873C6.22311 23.4873 7.73711 24.9711 7.80256 27.4319C7.80256 27.6061 7.78533 27.8063 7.76983 28.0014H1.38655V28.1163C1.43477 29.6976 2.42 30.8053 3.98223 30.8053C5.14142 30.8053 6.04914 30.187 6.31956 29.1108H7.65443C7.33406 30.7739 5.98024 31.993 4.07869 31.993C1.61218 31.993 0 30.2811 0 27.7384" fill="#003948"/>
<path d="M8.46404 20.4884H16.8798V21.5142L10.14 30.5946H17.0882V31.899H8.25391V30.8715L14.9937 21.7928H8.46404V20.4884Z" fill="#003948"/>
<path d="M17.7375 20.4884H26.4599V21.7928H22.7997V31.899H21.3977V21.7928H17.7375V20.4884Z" fill="#003948"/>
<path d="M29.9097 23.5848V24.8893H29.2483C27.5259 24.8893 27.0557 26.34 27.0557 27.66V31.8972H25.7397V23.5848H26.8834L27.0557 24.8405C27.4432 24.2048 28.0719 23.5848 29.5377 23.5848H29.9097Z" fill="#003948"/>
<path d="M35.778 28.1007H33.2306C32.0542 28.1007 31.3928 28.5396 31.3928 29.4939C31.3928 30.309 32.0817 30.8628 33.1823 30.8628C34.8255 30.8628 35.778 29.9015 35.778 28.5169V28.1007ZM38.0499 30.6747V31.8938H37.3248C36.2293 31.8938 35.8573 31.4218 35.8418 30.6068C35.325 31.3574 34.5034 32 33.0859 32C31.2808 32 30.0562 31.0857 30.0562 29.5706C30.0562 27.9074 31.1998 26.9792 33.3615 26.9792H35.7729V26.4079C35.7729 25.3334 35.015 24.6803 33.7249 24.6803C32.564 24.6803 31.7906 25.2341 31.6287 26.0823H30.3076C30.5005 24.4522 31.8061 23.4908 33.7886 23.4908C35.8848 23.4908 37.094 24.5497 37.094 26.4898V30.1244C37.094 30.565 37.2559 30.6782 37.6262 30.6782L38.0499 30.6747Z" fill="#003948"/>
<path d="M38.1155 27.7576C38.1155 25.2149 39.7432 23.4873 42.1287 23.4873C44.144 23.4873 45.4168 24.628 45.7561 26.4479H44.3782C44.1371 25.3403 43.331 24.6716 42.1218 24.6716C40.5424 24.6716 39.4779 25.9429 39.4779 27.7523C39.4779 29.5618 40.5424 30.8 42.1218 30.8C43.2982 30.8 44.1043 30.1156 44.361 29.0585H45.763C45.4409 30.8505 44.1026 31.993 42.1029 31.993C39.7018 31.993 38.1224 30.3455 38.1224 27.7541" fill="#003948"/>
<path d="M46.6914 20.4884H48.0142V28.0032L52.1411 23.5849H53.7688L50.5617 27.0244L53.9945 31.899H52.3978L49.6746 27.9857L48.0142 29.7134V31.899H46.6914V20.4884Z" fill="#003948"/>
<path d="M59.6714 26.8938C59.5422 25.4587 58.5759 24.6611 57.2049 24.6611C56.5939 24.6541 56.0027 24.8799 55.5488 25.2936C55.095 25.7073 54.8118 26.2786 54.7556 26.8938H59.6714ZM53.2881 27.7419C53.2881 25.2149 54.8675 23.4873 57.1894 23.4873C59.5112 23.4873 61.0269 24.9711 61.0907 27.4319C61.0907 27.6061 61.0752 27.8063 61.0579 28.0014H54.6764V28.1163C54.7246 29.6976 55.7098 30.8053 57.272 30.8053C58.433 30.8053 59.339 30.187 59.6094 29.1108H60.9477C60.6256 30.7739 59.2701 31.9965 57.3685 31.9965C54.902 31.9965 53.2898 30.2845 53.2898 27.7419" fill="#003948"/>
<path d="M65.9393 23.5848V24.8893H65.2796C63.5572 24.8893 63.087 26.34 63.087 27.66V31.8972H61.7642V23.5848H62.9096L63.0818 24.8405C63.4676 24.2048 64.0963 23.5848 65.5638 23.5848H65.9393Z" fill="#003948"/>
<path d="M40.3891 15.4866H38.5823C38.5403 15.4866 38.4999 15.4698 38.4702 15.4397C38.4405 15.4097 38.4238 15.3689 38.4238 15.3264C38.4238 15.2839 38.4405 15.2432 38.4702 15.2131C38.4999 15.1831 38.5403 15.1662 38.5823 15.1662H40.3891C40.5368 15.1648 40.678 15.1043 40.7816 14.9979C40.8852 14.8914 40.9429 14.7478 40.942 14.5984V12.742C40.9397 12.7199 40.942 12.6975 40.9488 12.6764C40.9556 12.6553 40.9667 12.6358 40.9814 12.6193C40.9961 12.6028 41.014 12.5896 41.0341 12.5806C41.0542 12.5716 41.0759 12.5669 41.0979 12.5669C41.1199 12.5669 41.1416 12.5716 41.1616 12.5806C41.1817 12.5896 41.1997 12.6028 41.2144 12.6193C41.2291 12.6358 41.2402 12.6553 41.247 12.6764C41.2537 12.6975 41.256 12.7199 41.2537 12.742V14.5984C41.2551 14.8314 41.1654 15.0555 41.0041 15.2219C40.8428 15.3883 40.6229 15.4834 40.3925 15.4866" fill="#003948"/>
<path d="M27.0437 15.4866H25.2351C25.0047 15.4834 24.7849 15.3883 24.6236 15.2219C24.4623 15.0555 24.3725 14.8314 24.3739 14.5984V12.742C24.3716 12.7199 24.3739 12.6975 24.3807 12.6764C24.3875 12.6553 24.3986 12.6358 24.4133 12.6193C24.428 12.6028 24.446 12.5896 24.466 12.5806C24.4861 12.5716 24.5078 12.5669 24.5298 12.5669C24.5517 12.5669 24.5735 12.5716 24.5935 12.5806C24.6136 12.5896 24.6316 12.6028 24.6463 12.6193C24.661 12.6358 24.6721 12.6553 24.6789 12.6764C24.6857 12.6975 24.688 12.7199 24.6857 12.742V14.5984C24.6847 14.7478 24.7424 14.8914 24.8461 14.9979C24.9497 15.1043 25.0909 15.1648 25.2386 15.1662H27.0471C27.0891 15.1662 27.1294 15.1831 27.1592 15.2131C27.1889 15.2432 27.2056 15.2839 27.2056 15.3264C27.2056 15.3689 27.1889 15.4097 27.1592 15.4397C27.1294 15.4698 27.0891 15.4866 27.0471 15.4866" fill="#003948"/>
<path d="M41.0986 2.86049C41.0781 2.86072 41.0577 2.85683 41.0387 2.84906C41.0197 2.84129 41.0024 2.82978 40.9878 2.8152C40.9732 2.80062 40.9617 2.78327 40.9538 2.76414C40.9459 2.74501 40.9418 2.72448 40.9418 2.70375V0.875129C40.9418 0.726863 40.8836 0.584672 40.7799 0.479832C40.6762 0.374993 40.5356 0.316089 40.3889 0.316089H38.5821C38.5603 0.318415 38.5382 0.316073 38.5173 0.309212C38.4964 0.302351 38.4771 0.291127 38.4608 0.276266C38.4445 0.261405 38.4314 0.243239 38.4225 0.222948C38.4136 0.202657 38.4089 0.180691 38.4089 0.15848C38.4089 0.136268 38.4136 0.114308 38.4225 0.094017C38.4314 0.0737263 38.4445 0.0555603 38.4608 0.0406993C38.4771 0.0258382 38.4964 0.0146142 38.5173 0.00775301C38.5382 0.0008918 38.5603 -0.0014548 38.5821 0.000870385H40.3889C40.6173 0.000870385 40.8364 0.0926141 40.9979 0.255916C41.1594 0.419217 41.2501 0.640699 41.2501 0.871642V2.70026C41.2501 2.74183 41.2338 2.7817 41.2047 2.8111C41.1756 2.84049 41.1362 2.85701 41.0951 2.85701" fill="#003948"/>
<path d="M24.5342 2.92316C24.5134 2.92294 24.4928 2.91857 24.4737 2.91031C24.4546 2.90205 24.4372 2.89005 24.4227 2.87501C24.4081 2.85997 24.3966 2.84218 24.3889 2.82265C24.3811 2.80312 24.3773 2.78224 24.3775 2.7612V0.894267C24.3752 0.660519 24.4645 0.435349 24.6258 0.267948C24.7872 0.100548 25.0075 0.00452414 25.2387 0.000854492H27.0472C27.0866 0.00500206 27.1231 0.0237622 27.1496 0.0535132C27.1762 0.0832642 27.1908 0.121899 27.1908 0.16195C27.1908 0.202002 27.1762 0.240631 27.1496 0.270382C27.1231 0.300133 27.0866 0.318894 27.0472 0.323041H25.2387C25.0905 0.324879 24.9491 0.386042 24.8455 0.493119C24.7418 0.600196 24.6844 0.744451 24.6858 0.894267V2.7612C24.6863 2.78216 24.6826 2.803 24.675 2.82252C24.6675 2.84204 24.6561 2.85984 24.6417 2.87491C24.6273 2.88997 24.6101 2.90199 24.591 2.91028C24.572 2.91856 24.5515 2.92294 24.5308 2.92316" fill="#003948"/>
<path d="M40.3201 8.14434C40.3201 8.13041 40.3201 8.11821 40.3201 8.10428V6.27044C40.3178 6.11343 40.2562 5.96326 40.1479 5.85073L35.8418 1.25827C35.4713 0.862437 35.0248 0.547217 34.5296 0.33191C34.0344 0.116604 33.501 0.00573977 32.9619 0.00610441H32.8017C32.2738 0.00620822 31.7512 0.112682 31.2644 0.319304C30.7776 0.525926 30.3364 0.828554 29.9666 1.20951L27.8067 3.4474H29.9632L30.4799 2.92493C31.2257 2.15865 31.758 1.57176 32.8224 1.57176H32.8793C33.9454 1.57176 34.5345 2.16214 35.2803 2.9319L38.1102 5.84899C38.1932 5.93461 38.2494 6.04308 38.2718 6.16083C38.2941 6.27858 38.2816 6.40038 38.2358 6.51098C38.1901 6.62158 38.113 6.71607 38.0144 6.78264C37.9158 6.8492 37.7999 6.88488 37.6814 6.8852H25.8018C25.6786 6.88544 25.5599 6.93186 25.4686 7.0155C25.3773 7.09914 25.3199 7.21405 25.3075 7.338V7.3502C25.3067 7.36295 25.3067 7.37575 25.3075 7.38851V9.22236C25.3092 9.37898 25.3709 9.52884 25.4797 9.64033L29.7858 14.2328C30.1565 14.6288 30.6033 14.9442 31.0988 15.1595C31.5943 15.3748 32.1281 15.4855 32.6674 15.4849H32.8259C33.3538 15.4848 33.8764 15.3784 34.3632 15.1717C34.85 14.9651 35.2912 14.6625 35.661 14.2815L37.8295 12.0437H35.6765L35.1597 12.5661C34.4139 13.3324 33.8783 13.9385 32.8155 13.9385C31.7528 13.9385 31.1034 13.3307 30.3559 12.5592L27.526 9.64207C27.4429 9.55634 27.3866 9.4477 27.3644 9.32979C27.3421 9.21188 27.3547 9.08995 27.4007 8.97927C27.4467 8.8686 27.524 8.77413 27.6229 8.7077C27.7218 8.64126 27.8379 8.60583 27.9566 8.60585H39.8241C39.9474 8.60601 40.0663 8.55971 40.1577 8.476C40.2491 8.39228 40.3064 8.27715 40.3184 8.15305C40.3176 8.14961 40.3176 8.14603 40.3184 8.1426" fill="#003948"/>
</svg>
